<svg width="18" height="18" viewBox="0 0 18 18" fill="none" xmlns="http://www.w3.org/2000/svg">
<path d="M11.0919 7.07145C11.4755 7.07145 11.8434 7.22384 12.1146 7.4951C12.3859 7.76635 12.5383 8.13426 12.5383 8.51787V12.5351C12.5383 13.473 12.1657 14.3725 11.5025 15.0357C10.8393 15.6989 9.93983 16.0714 9.00193 16.0714C8.06403 16.0714 7.16454 15.6989 6.50135 15.0357C5.83815 14.3725 5.46557 13.473 5.46557 12.5351V8.51787C5.46557 8.13426 5.61796 7.76635 5.88922 7.4951C6.16048 7.22384 6.52838 7.07145 6.912 7.07145H11.0919ZM11.0919 8.03573H6.912C6.78413 8.03573 6.66149 8.08653 6.57107 8.17695C6.48065 8.26737 6.42986 8.39 6.42986 8.51787V12.5351C6.42986 13.2172 6.70084 13.8715 7.1832 14.3538C7.66556 14.8362 8.31977 15.1072 9.00193 15.1072C9.68408 15.1072 10.3383 14.8362 10.8207 14.3538C11.303 13.8715 11.574 13.2172 11.574 12.5351V8.51787C11.574 8.39 11.5232 8.26737 11.4328 8.17695C11.3424 8.08653 11.2197 8.03573 11.0919 8.03573ZM2.73214 7.07145H5.40386C5.14576 7.34017 4.9644 7.67315 4.87864 8.03573H2.73214C2.60427 8.03573 2.48163 8.08653 2.39122 8.17695C2.3008 8.26737 2.25 8.39 2.25 8.51787V11.8922C2.24991 12.2148 2.3307 12.5322 2.48498 12.8155C2.63926 13.0988 2.8621 13.3388 3.13312 13.5137C3.40414 13.6886 3.71468 13.7928 4.03635 13.8167C4.35802 13.8406 4.68055 13.7834 4.97443 13.6504C5.05993 13.9654 5.18271 14.265 5.337 14.5453C4.89656 14.7376 4.41515 14.8172 3.93626 14.7768C3.45736 14.7365 2.99606 14.5775 2.59401 14.3142C2.19196 14.0509 1.86182 13.6916 1.6334 13.2687C1.40499 12.8459 1.2855 12.3728 1.28571 11.8922V8.51787C1.28571 8.13426 1.4381 7.76635 1.70936 7.4951C1.98062 7.22384 2.34853 7.07145 2.73214 7.07145ZM15.2679 7.07145C15.6515 7.07145 16.0194 7.22384 16.2906 7.4951C16.5619 7.76635 16.7143 8.13426 16.7143 8.51787V11.8929C16.7145 12.3732 16.5951 12.846 16.3668 13.2686C16.1386 13.6913 15.8087 14.0504 15.407 14.3137C15.0052 14.5769 14.5443 14.736 14.0657 14.7766C13.5871 14.8171 13.1059 14.7379 12.6656 14.5459L12.7016 14.4804C12.8391 14.2194 12.9504 13.9423 13.0301 13.6517C13.3238 13.7839 13.6459 13.8404 13.9671 13.8161C14.2883 13.7917 14.5982 13.6874 14.8687 13.5125C15.1391 13.3376 15.3615 13.0977 15.5154 12.8148C15.6694 12.5319 15.75 12.215 15.75 11.8929V8.51787C15.75 8.39011 15.6993 8.26758 15.609 8.17718C15.5187 8.08677 15.3963 8.0359 15.2685 8.03573H13.1259C13.0399 7.67307 12.8584 7.34007 12.6 7.07145H15.2685H15.2679ZM9 1.92859C9.29547 1.92859 9.58805 1.98679 9.86104 2.09986C10.134 2.21293 10.3821 2.37867 10.591 2.5876C10.7999 2.79653 10.9657 3.04457 11.0787 3.31755C11.1918 3.59053 11.25 3.88311 11.25 4.17859C11.25 4.47406 11.1918 4.76664 11.0787 5.03963C10.9657 5.31261 10.7999 5.56065 10.591 5.76958C10.3821 5.97851 10.134 6.14424 9.86104 6.25732C9.58805 6.37039 9.29547 6.42859 9 6.42859C8.40326 6.42859 7.83097 6.19154 7.40901 5.76958C6.98705 5.34762 6.75 4.77533 6.75 4.17859C6.75 3.58185 6.98705 3.00956 7.40901 2.5876C7.83097 2.16564 8.40326 1.92859 9 1.92859ZM14.1448 2.57145C14.398 2.57145 14.6488 2.62133 14.8828 2.71825C15.1168 2.81517 15.3294 2.95723 15.5085 3.13631C15.6876 3.3154 15.8296 3.528 15.9266 3.76199C16.0235 3.99597 16.0734 4.24675 16.0734 4.50002C16.0734 4.75328 16.0235 5.00406 15.9266 5.23805C15.8296 5.47203 15.6876 5.68464 15.5085 5.86372C15.3294 6.04281 15.1168 6.18487 14.8828 6.28179C14.6488 6.37871 14.398 6.42859 14.1448 6.42859C13.6333 6.42859 13.1428 6.2254 12.7811 5.86372C12.4194 5.50205 12.2162 5.01151 12.2162 4.50002C12.2162 3.98853 12.4194 3.49799 12.7811 3.13631C13.1428 2.77463 13.6333 2.57145 14.1448 2.57145ZM3.85521 2.57145C4.10848 2.57145 4.35926 2.62133 4.59325 2.71825C4.82723 2.81517 5.03984 2.95723 5.21892 3.13631C5.398 3.3154 5.54006 3.528 5.63698 3.76199C5.7339 3.99597 5.78379 4.24675 5.78379 4.50002C5.78379 4.75328 5.7339 5.00406 5.63698 5.23805C5.54006 5.47203 5.398 5.68464 5.21892 5.86372C5.03984 6.04281 4.82723 6.18487 4.59325 6.28179C4.35926 6.37871 4.10848 6.42859 3.85521 6.42859C3.34372 6.42859 2.85319 6.2254 2.49151 5.86372C2.12983 5.50205 1.92664 5.01151 1.92664 4.50002C1.92664 3.98853 2.12983 3.49799 2.49151 3.13631C2.85319 2.77463 3.34372 2.57145 3.85521 2.57145ZM9 2.89287C8.65901 2.89287 8.33198 3.02833 8.09086 3.26945C7.84974 3.51057 7.71428 3.8376 7.71428 4.17859C7.71428 4.51958 7.84974 4.84661 8.09086 5.08773C8.33198 5.32884 8.65901 5.4643 9 5.4643C9.34099 5.4643 9.66802 5.32884 9.90914 5.08773C10.1503 4.84661 10.2857 4.51958 10.2857 4.17859C10.2857 3.8376 10.1503 3.51057 9.90914 3.26945C9.66802 3.02833 9.34099 2.89287 9 2.89287ZM14.1448 3.53573C14.0182 3.53573 13.8928 3.56067 13.7758 3.60913C13.6588 3.65759 13.5525 3.72862 13.4629 3.81816C13.3734 3.90771 13.3024 4.01401 13.2539 4.131C13.2054 4.24799 13.1805 4.37339 13.1805 4.50002C13.1805 4.62665 13.2054 4.75204 13.2539 4.86903C13.3024 4.98603 13.3734 5.09233 13.4629 5.18187C13.5525 5.27141 13.6588 5.34244 13.7758 5.3909C13.8928 5.43936 14.0182 5.4643 14.1448 5.4643C14.4005 5.4643 14.6458 5.36271 14.8266 5.18187C15.0075 5.00103 15.1091 4.75576 15.1091 4.50002C15.1091 4.24427 15.0075 3.999 14.8266 3.81816C14.6458 3.63733 14.4005 3.53573 14.1448 3.53573ZM3.85521 3.53573C3.72858 3.53573 3.60319 3.56067 3.4862 3.60913C3.3692 3.65759 3.2629 3.72862 3.17336 3.81816C3.08382 3.90771 3.01279 4.01401 2.96433 4.131C2.91587 4.24799 2.89093 4.37339 2.89093 4.50002C2.89093 4.62665 2.91587 4.75204 2.96433 4.86903C3.01279 4.98603 3.08382 5.09233 3.17336 5.18187C3.2629 5.27141 3.3692 5.34244 3.4862 5.3909C3.60319 5.43936 3.72858 5.4643 3.85521 5.4643C4.11096 5.4643 4.35623 5.36271 4.53707 5.18187C4.71791 5.00103 4.8195 4.75576 4.8195 4.50002C4.8195 4.24427 4.71791 3.999 4.53707 3.81816C4.35623 3.63733 4.11096 3.53573 3.85521 3.53573Z" fill="#8752CC"/>
</svg>
